<svg width="18" height="18" viewBox="0 0 27 27" fill="none" xmlns="http://www.w3.org/2000/svg">
<path d="M18.9437 2.51404H7.9578C4.92412 2.51404 2.46484 4.97332 2.46484 8.00699V18.9929C2.46484 22.0266 4.92412 24.4859 7.9578 24.4859H18.9437C21.9774 24.4859 24.4367 22.0266 24.4367 18.9929V8.00699C24.4367 4.97332 21.9774 2.51404 18.9437 2.51404Z" stroke="#F8EFF2" stroke-width="1.22686" stroke-linecap="round" stroke-linejoin="round"/>
<path d="M17.8452 12.8079C17.9808 13.7222 17.8246 14.656 17.3989 15.4764C16.9732 16.2968 16.2996 16.9621 15.474 17.3777C14.6484 17.7932 13.7128 17.9379 12.8002 17.791C11.8877 17.6442 11.0447 17.2133 10.3911 16.5598C9.73751 15.9062 9.30666 15.0632 9.15982 14.1506C9.01298 13.238 9.15762 12.3024 9.57317 11.4768C9.98873 10.6512 10.654 9.97764 11.4745 9.55193C12.2949 9.12623 13.2287 8.97006 14.143 9.10564C15.0756 9.24394 15.939 9.67852 16.6057 10.3452C17.2723 11.0119 17.7069 11.8753 17.8452 12.8079Z" stroke="#F8EFF2" stroke-width="1.22686" stroke-linecap="round" stroke-linejoin="round"/>
<path d="M19.493 7.45776H19.504" stroke="#F8EFF2" stroke-width="1.22686" stroke-linecap="round" stroke-linejoin="round"/>
</svg>
