<svg width="18" height="18" viewBox="0 0 21 20" fill="none" xmlns="http://www.w3.org/2000/svg">
<path d="M12.9999 4.5C13.7371 4.64382 14.4689 4.96892 14.9999 5.5C15.531 6.03108 15.8561 6.76284 15.9999 7.5M13.4999 1C15.0315 1.17014 16.4096 1.91107 17.4999 3C18.5902 4.08893 19.3279 5.46869 19.4999 7M19.4994 14.4767V17.1864C19.5036 18.2223 18.5722 19.0873 17.5264 18.9929C8.5 19 1.5 11.935 1.50706 2.96919C1.41287 1.92895 2.27358 1.00106 3.30811 1.00009H6.02325C6.46247 0.995773 6.88828 1.151 7.22131 1.43684C8.16813 2.24949 8.77713 5.00777 8.54281 6.10428C8.35987 6.96036 7.4969 7.55929 6.91019 8.14484C8.19858 10.4062 10.0746 12.2785 12.3405 13.5644C12.9272 12.9788 13.5273 12.1176 14.3851 11.935C15.4855 11.7008 18.2615 12.3106 19.0709 13.264C19.3579 13.6021 19.5104 14.0337 19.4994 14.4767Z" stroke="#252323" stroke-width="1.5" stroke-linecap="round" stroke-linejoin="round"/>
</svg>
