<svg width="18" height="18" stroke="#F8EFF2" viewBox="0 0 26 22" fill="none" xmlns="http://www.w3.org/2000/svg">
<path d="M25.1691 1.61261C24.1171 2.35468 22.9523 2.92225 21.7195 3.29345C21.0579 2.53269 20.1786 1.99348 19.2005 1.74875C18.2224 1.50403 17.1928 1.56559 16.2508 1.92511C15.3089 2.28463 14.5001 2.92477 13.9338 3.75894C13.3675 4.59312 13.0711 5.58109 13.0846 6.58923V7.68782C11.154 7.73788 9.24095 7.3097 7.51587 6.44141C5.79079 5.57312 4.30723 4.29167 3.1973 2.7112C3.1973 2.7112 -1.19706 12.5985 8.69026 16.9929C6.42774 18.5287 3.73249 19.2987 1.00012 19.1901C10.8874 24.683 22.9719 19.1901 22.9719 6.55627C22.9709 6.25026 22.9415 5.94501 22.884 5.64444C24.0053 4.5387 24.7965 3.14263 25.1691 1.61261V1.61261Z" stroke-width="1.22686" stroke-linecap="round" stroke-linejoin="round"/>
</svg>
